<svg width="33" height="33" viewBox="0 0 33 33" fill="none" xmlns="http://www.w3.org/2000/svg">
<path d="M9.90295 33C8.99518 33 8.21835 32.6772 7.57245 32.0314C6.92546 31.3846 6.60196 30.6075 6.60196 29.7C6.60196 28.7925 6.92546 28.0154 7.57245 27.3685C8.21835 26.7228 8.99518 26.4 9.90295 26.4C10.8107 26.4 11.5875 26.7228 12.2334 27.3685C12.8804 28.0154 13.2039 28.7925 13.2039 29.7C13.2039 30.6075 12.8804 31.3846 12.2334 32.0314C11.5875 32.6772 10.8107 33 9.90295 33ZM26.4079 33C25.5001 33 24.7233 32.6772 24.0774 32.0314C23.4304 31.3846 23.1069 30.6075 23.1069 29.7C23.1069 28.7925 23.4304 28.0154 24.0774 27.3685C24.7233 26.7228 25.5001 26.4 26.4079 26.4C27.3156 26.4 28.093 26.7228 28.74 27.3685C29.3859 28.0154 29.7088 28.7925 29.7088 29.7C29.7088 30.6075 29.3859 31.3846 28.74 32.0314C28.093 32.6772 27.3156 33 26.4079 33ZM9.90295 24.75C8.66508 24.75 7.7298 24.2066 7.09711 23.1198C6.46442 22.0341 6.43692 20.955 7.01459 19.8825L9.24275 15.84L3.30098 3.3H1.60923C1.14159 3.3 0.756475 3.1416 0.453885 2.8248C0.151295 2.5091 0 2.1175 0 1.65C0 1.1825 0.158447 0.79035 0.475341 0.47355C0.791135 0.15785 1.18285 0 1.65049 0H4.33254C4.63513 0 4.92397 0.0825002 5.19905 0.2475C5.47413 0.4125 5.68044 0.64625 5.81798 0.94875L6.93206 3.3H31.2768C32.0195 3.3 32.5284 3.575 32.8035 4.125C33.0786 4.675 33.0648 5.2525 32.7623 5.8575L26.903 16.4175C26.6004 16.9675 26.2015 17.3938 25.7064 17.6963C25.2113 17.9988 24.6473 18.15 24.0146 18.15H11.7185L9.90295 21.45H28.0996C28.5673 21.45 28.9524 21.6078 29.255 21.9235C29.5575 22.2403 29.7088 22.6325 29.7088 23.1C29.7088 23.5675 29.5504 23.9591 29.2335 24.2748C28.9177 24.5916 28.526 24.75 28.0584 24.75H9.90295Z" fill="#98D8E2"/>
</svg>
