<svg width="24" height="27" viewBox="0 0 24 27" fill="none" xmlns="http://www.w3.org/2000/svg">
<path d="M0 7.87176V18.7111C0.000562677 19.2596 0.145372 19.7984 0.419903 20.2733C0.694434 20.7483 1.08903 21.1427 1.56411 21.417L10.2058 26.2031C10.6643 26.4523 11.1778 26.5828 11.6996 26.5828C12.2213 26.5828 12.7348 26.4523 13.1933 26.2031L21.8976 21.417C22.3726 21.1427 22.7672 20.7483 23.0418 20.2733C23.3163 19.7984 23.4611 19.2596 23.4617 18.7111V7.87176C23.4611 7.32319 23.3163 6.78441 23.0418 6.30947C22.7672 5.83453 22.3726 5.44013 21.8976 5.16585L13.2246 0.379667C12.7661 0.130517 12.2526 0 11.7308 0C11.2091 0 10.6956 0.130517 10.2371 0.379667L1.56411 5.16585C1.08903 5.44013 0.694434 5.83453 0.419903 6.30947C0.145372 6.78441 0.000562677 7.32319 0 7.87176Z" fill="#F7D079"/>
<path d="M15.5707 23.075C15.1123 23.3242 14.5988 23.4547 14.077 23.4547C13.5552 23.4547 13.0417 23.3242 12.5833 23.075L3.91028 18.2888C3.4352 18.0146 3.0406 17.6202 2.76607 17.1452C2.49154 16.6703 2.34673 16.1315 2.34617 15.5829V4.75146L1.56411 5.16595C1.08903 5.44024 0.694434 5.83464 0.419903 6.30957C0.145372 6.78451 0.000562677 7.32329 0 7.87187V18.7112C0.000562677 19.2597 0.145372 19.7985 0.419903 20.2735C0.694434 20.7484 1.08903 21.1428 1.56411 21.4171L10.2058 26.2033C10.6643 26.4524 11.1778 26.5829 11.6996 26.5829C12.2213 26.5829 12.7348 26.4524 13.1933 26.2033L21.8976 21.4171C22.3726 21.1428 22.7672 20.7484 23.0418 20.2735C23.3163 19.7985 23.4611 19.2597 23.4617 18.7112L15.5707 23.075Z" fill="#F9B15A"/>
<path d="M8.60264 10.1632V16.4196C8.60264 16.627 8.52024 16.8259 8.37358 16.9726C8.22691 17.1193 8.028 17.2017 7.82058 17.2017C7.6841 17.2008 7.55021 17.1643 7.43222 17.0957C7.31423 17.0271 7.21625 16.9288 7.14801 16.8106L3.9103 12.5093V16.4196C3.9103 16.627 3.82791 16.8259 3.68124 16.9726C3.53458 17.1193 3.33566 17.2017 3.12825 17.2017C2.92083 17.2017 2.72191 17.1193 2.57525 16.9726C2.42859 16.8259 2.34619 16.627 2.34619 16.4196V10.1632C2.34619 9.95575 2.42859 9.75683 2.57525 9.61016C2.72191 9.4635 2.92083 9.3811 3.12825 9.3811C3.26473 9.38193 3.39862 9.41845 3.5166 9.48705C3.63459 9.55565 3.73258 9.65393 3.80082 9.77213L7.03853 14.0734V10.1632C7.03853 9.95575 7.12092 9.75683 7.26758 9.61016C7.41425 9.4635 7.61317 9.3811 7.82058 9.3811C8.028 9.3811 8.22691 9.4635 8.37358 9.61016C8.52024 9.75683 8.60264 9.95575 8.60264 10.1632Z" fill="#F2F2F2"/>
<path d="M14.0771 10.9452C14.2845 10.9452 14.4835 10.8628 14.6301 10.7162C14.7768 10.5695 14.8592 10.3706 14.8592 10.1632C14.8592 9.95575 14.7768 9.75683 14.6301 9.61016C14.4835 9.4635 14.2845 9.3811 14.0771 9.3811H10.9489C10.7415 9.3811 10.5426 9.4635 10.3959 9.61016C10.2492 9.75683 10.1668 9.95575 10.1668 10.1632V16.4196C10.1668 16.627 10.2492 16.8259 10.3959 16.9726C10.5426 17.1193 10.7415 17.2017 10.9489 17.2017C11.1563 17.2017 11.3552 17.1193 11.5019 16.9726C11.6486 16.8259 11.731 16.627 11.731 16.4196V14.0734H14.0771C14.2845 14.0734 14.4835 13.991 14.6301 13.8444C14.7768 13.6977 14.8592 13.4988 14.8592 13.2914C14.8592 13.084 14.7768 12.885 14.6301 12.7384C14.4835 12.5917 14.2845 12.5093 14.0771 12.5093H11.731V10.9452H14.0771Z" fill="#F2F2F2"/>
<path d="M20.3335 9.3811H17.2053C16.9979 9.3811 16.799 9.4635 16.6523 9.61016C16.5056 9.75683 16.4232 9.95575 16.4232 10.1632C16.4232 10.3706 16.5056 10.5695 16.6523 10.7162C16.799 10.8628 16.9979 10.9452 17.2053 10.9452H17.9873V16.4196C17.9873 16.627 18.0697 16.8259 18.2164 16.9726C18.3631 17.1193 18.562 17.2017 18.7694 17.2017C18.9768 17.2017 19.1757 17.1193 19.3224 16.9726C19.4691 16.8259 19.5515 16.627 19.5515 16.4196V10.9452H20.3335C20.5409 10.9452 20.7398 10.8628 20.8865 10.7162C21.0332 10.5695 21.1156 10.3706 21.1156 10.1632C21.1156 9.95575 21.0332 9.75683 20.8865 9.61016C20.7398 9.4635 20.5409 9.3811 20.3335 9.3811Z" fill="#F2F2F2"/>
</svg>
