<svg width="22" height="26" viewBox="0 0 22 26" fill="none" xmlns="http://www.w3.org/2000/svg">
<path d="M17.3841 23.5782H3.92678C3.34893 23.5782 2.88051 23.1097 2.88051 22.5319V3.20996H1.14641C0.513251 3.20996 0 3.72321 0 4.35637V24.8537C0 25.4868 0.513251 26.0001 1.14641 26.0001H16.2378C16.8709 26.0001 17.3842 25.4868 17.3842 24.8537V23.5782H17.3841Z" fill="#8AC9FE"/>
<path d="M2.8805 3.20996V22.5319C2.8805 23.1097 3.34892 23.5782 3.92678 23.5782H17.3841V24.8537C17.3841 25.077 17.32 25.2853 17.2096 25.4615H2.98063C2.34753 25.4615 1.83427 24.9482 1.83427 24.3151V23.478L2.35741 3.81769L2.8805 3.20996Z" fill="#60B7FF"/>
<path d="M19.2183 21.7438H5.76101C5.18315 21.7438 4.71473 21.2754 4.71473 20.6976V1.83423H2.98063C2.34753 1.83423 1.83427 2.34748 1.83427 2.98064V23.4779C1.83427 24.1111 2.34753 24.6244 2.98063 24.6244H18.072C18.7051 24.6244 19.2184 24.1111 19.2184 23.4779V21.7438H19.2183Z" fill="#FED402"/>
<path d="M4.71473 1.83423V20.6976C4.71473 21.2754 5.18315 21.7438 5.76101 21.7438H19.2183V23.4779C19.2183 23.5713 19.2069 23.6618 19.1859 23.7487H4.81481C4.18171 23.7487 3.66846 23.2354 3.66846 22.6023V21.6437L4.1916 20.1965V2.10495L4.71473 1.83423Z" fill="#FAC600"/>
<path d="M19.8015 22.7901H4.81481C4.18171 22.7901 3.66846 22.2769 3.66846 21.6437V1.14641C3.66846 0.513251 4.18171 0 4.81481 0H16.4084L20.9479 4.64411V21.6437C20.9479 22.2769 20.4347 22.7901 19.8015 22.7901Z" fill="#EFEDEF"/>
<path d="M19.4832 3.07471V21.6437C19.4832 22.2769 18.9699 22.7901 18.3368 22.7901H19.9062C20.5394 22.7901 21.0526 22.2769 21.0526 21.6437V4.64412L19.4832 3.07471Z" fill="#D7D0D6"/>
<path d="M21.0526 4.64411H17.5546C16.9216 4.64411 16.4084 4.13097 16.4084 3.49792V0L21.0526 4.64411Z" fill="#B5ADB6"/>
<path d="M17.596 8.87943H7.12504C6.90835 8.87943 6.73268 8.70376 6.73268 8.48708C6.73268 8.2704 6.90835 8.09473 7.12504 8.09473H17.596C17.8127 8.09473 17.9883 8.2704 17.9883 8.48708C17.9883 8.70376 17.8127 8.87943 17.596 8.87943Z" fill="#B5ADB6"/>
<path d="M17.596 11.7874H7.12504C6.90835 11.7874 6.73268 11.6117 6.73268 11.395C6.73268 11.1784 6.90835 11.0027 7.12504 11.0027H17.596C17.8127 11.0027 17.9883 11.1784 17.9883 11.395C17.9883 11.6117 17.8127 11.7874 17.596 11.7874Z" fill="#B5ADB6"/>
<path d="M17.596 14.6954H7.12504C6.90835 14.6954 6.73268 14.5197 6.73268 14.303C6.73268 14.0863 6.90835 13.9106 7.12504 13.9106H17.596C17.8127 13.9106 17.9883 14.0863 17.9883 14.303C17.9883 14.5197 17.8127 14.6954 17.596 14.6954Z" fill="#B5ADB6"/>
</svg>
