<svg width="28" height="26" viewBox="0 0 28 26" fill="none" xmlns="http://www.w3.org/2000/svg">
<path d="M27.3175 16.1604L27.3144 18.1324L13.6999 25.9999L13.703 24.0279L27.3175 16.1604Z" fill="#47A047"/>
<path d="M13.7031 24.0278L13.6999 25.9998L0 18.1324L0.00314056 16.1604L13.7031 24.0278Z" fill="#5FAF5F"/>
<path d="M27.3176 16.1604L13.7031 24.0279L0.00315857 16.1605L13.6176 8.29297L27.3176 16.1604Z" fill="#96D696"/>
<path d="M23.7157 14.7582C23.7091 14.3603 23.4951 13.9946 23.1512 13.7939L21.7482 12.9753C21.5784 12.8761 21.386 12.8227 21.1895 12.8202L6.48205 12.6268C6.2761 12.6243 6.07327 12.6774 5.89518 12.781L4.44599 13.623C4.19037 13.7717 4.00259 14.0137 3.92235 14.2983L3.65995 15.2292C3.57947 15.5146 3.61361 15.8203 3.75513 16.0809L4.52807 17.5048C4.72715 17.8717 5.11105 18.1001 5.5284 18.1001H6.52505C6.84083 18.1001 7.14241 18.2312 7.35771 18.4622L8.07667 19.2336C8.21829 19.3856 8.39878 19.4959 8.59858 19.5526L12.0088 20.5205C12.2224 20.5811 12.4489 20.578 12.6607 20.5113L13.6755 20.1926C13.7908 20.1565 13.9111 20.1389 14.032 20.1406L18.3643 20.1993C18.5773 20.202 18.7868 20.1451 18.9691 20.0347L23.1954 17.4771C23.5418 17.2673 23.7508 16.8893 23.7441 16.4844L23.7157 14.7582Z" fill="#77CB77"/>
<path d="M13.7324 2.23853L10.6268 4.56794L8.92841 7.43114L6.211 9.4692L4.41557 15.5834L5.33754 17.2818H7.3756L8.73431 18.7375L12.3252 19.7565L13.7324 19.3198L18.4677 19.3794L22.8896 16.7063L22.6046 13.8548L20.0892 10.925L19.4071 8.59316L17.1105 6.26874L16.2615 4.31952L13.7324 2.23853Z" fill="#272E3A"/>
<path d="M16.9565 18.7896L16.5578 18.5579C16.61 18.6216 16.6645 18.6817 16.724 18.733L17.1227 18.9647C17.0633 18.9134 17.0088 18.8534 16.9565 18.7896Z" fill="#FEBB61"/>
<path d="M16.7762 18.2276L16.3774 17.9958C16.395 18.0971 16.4141 18.1942 16.4412 18.2825L16.8399 18.5143C16.8129 18.4259 16.7938 18.3288 16.7762 18.2276Z" fill="#FEBB61"/>
<path d="M18.7576 15.1885L18.3589 14.9568C18.2656 14.9874 18.1716 15.02 18.0755 15.0639L18.4743 15.2956C18.5704 15.2517 18.6644 15.2191 18.7576 15.1885Z" fill="#FEBB61"/>
<path d="M16.8306 17.5027L16.4318 17.271C16.4119 17.3898 16.3934 17.5085 16.3836 17.6256L16.7824 17.8574C16.7922 17.7403 16.8106 17.6215 16.8306 17.5027Z" fill="#FEBB61"/>
<path d="M18.1542 15.4712L17.7554 15.2395C17.6587 15.3162 17.5648 15.392 17.4753 15.4744L17.8741 15.7061C17.9636 15.6237 18.0574 15.5479 18.1542 15.4712Z" fill="#FEBB61"/>
<path d="M17.576 16.0113L17.1773 15.7795C17.0965 15.8868 17.0165 15.9946 16.943 16.106L17.3418 16.3378C17.4153 16.2263 17.4953 16.1186 17.576 16.0113Z" fill="#FEBB61"/>
<path d="M17.1113 16.7247L16.7125 16.4929C16.6586 16.6155 16.6047 16.7381 16.5594 16.8616L16.9582 17.0933C17.0034 16.9699 17.0574 16.8473 17.1113 16.7247Z" fill="#FEBB61"/>
<path d="M19.3111 15.2623C19.3021 15.2679 19.2919 15.2759 19.2828 15.285L19.6823 15.5169C19.6913 15.5067 19.7004 15.5 19.7106 15.4943C19.7298 15.483 19.7479 15.4807 19.7615 15.4886L19.3632 15.2567C19.3496 15.2487 19.3304 15.251 19.3111 15.2623Z" fill="#FFDD94"/>
<path d="M17.1894 18.9072C17.1758 18.9536 17.1826 18.9876 17.203 19L17.6024 19.2308C17.5821 19.2195 17.5742 19.1856 17.5877 19.1381L17.1894 18.9072Z" fill="#FFDD94"/>
<path d="M16.7243 18.7329C16.6903 18.7906 16.6915 18.8438 16.7198 18.8608L17.1181 19.0928C17.0898 19.0758 17.0898 19.0226 17.1226 18.9649L16.7243 18.7329Z" fill="#FFDD94"/>
<path d="M16.9586 17.0933L16.5591 16.8613C16.5433 16.8624 16.5342 16.8659 16.524 16.8715C16.4957 16.8885 16.4686 16.9224 16.4573 16.9621L16.3916 17.1838C16.3803 17.2235 16.3871 17.254 16.4075 17.2664L16.8058 17.4984C16.7854 17.486 16.7786 17.4543 16.7911 17.4158L16.8556 17.194C16.868 17.1544 16.8941 17.1205 16.9223 17.1035C16.9325 17.0978 16.9427 17.0944 16.9586 17.0933Z" fill="#FFDD94"/>
<path d="M17.616 15.878L17.7744 15.7105C17.7846 15.7004 17.7936 15.6924 17.8038 15.6868C17.8219 15.6766 17.84 15.6743 17.8547 15.6822L17.4553 15.4514C17.4417 15.4423 17.4236 15.4446 17.4044 15.4559C17.3953 15.4605 17.3851 15.4684 17.3761 15.4786L17.2165 15.646C17.1803 15.6845 17.1622 15.7456 17.1769 15.7795L17.5764 16.0116C17.5605 15.9765 17.5786 15.9165 17.616 15.878Z" fill="#FFDD94"/>
<path d="M18.7578 15.1889C18.7691 15.1492 18.7963 15.1141 18.8257 15.0972C18.8347 15.0915 18.8438 15.0881 18.854 15.087L18.9038 15.0825L19.0509 15.1674C19.1346 15.1719 19.2138 15.1877 19.2942 15.2047C19.3089 15.1786 19.327 15.1606 19.3462 15.1492C19.3609 15.1413 19.3756 15.1367 19.3881 15.1402C19.3915 15.1413 19.3937 15.1424 19.3971 15.1447L19.5193 15.2137L19.121 14.9829L18.9988 14.9127H18.9977C18.9841 14.9048 18.966 14.9071 18.9468 14.9173C18.9287 14.9286 18.9094 14.9478 18.8947 14.9727C18.8766 14.9693 18.8585 14.9648 18.8393 14.9614L18.6378 14.8437C18.631 14.8403 18.6231 14.838 18.6141 14.8391L18.4545 14.8562C18.4455 14.8562 18.4364 14.8595 18.4262 14.8652C18.3979 14.8821 18.3696 14.9173 18.3583 14.9568L18.7578 15.1889Z" fill="#FFDD94"/>
<path d="M16.4414 18.2827C16.3973 18.3302 16.3792 18.3891 16.395 18.4219L16.4618 18.5679C16.4652 18.5758 16.4708 18.5826 16.4776 18.586L16.8759 18.818C16.8691 18.8134 16.8646 18.8078 16.8601 18.7998L16.7945 18.6539C16.7775 18.621 16.7956 18.5611 16.8397 18.5147L16.4414 18.2827Z" fill="#FFDD94"/>
<path d="M16.3033 17.7565V17.9546C16.3033 17.9772 16.3113 17.9941 16.3248 18.001L16.7232 18.2329C16.7107 18.225 16.7028 18.2092 16.7017 18.1865V17.9885C16.7017 17.9421 16.7345 17.8855 16.782 17.8572L16.3837 17.6252C16.3362 17.6535 16.3022 17.7101 16.3033 17.7565Z" fill="#FFDD94"/>
<path d="M18.1547 15.4718C18.1535 15.4254 18.1875 15.3689 18.2271 15.3451L18.4002 15.2455C18.4195 15.2342 18.4376 15.233 18.4511 15.2398L18.0517 15.009C18.0392 15.0011 18.0211 15.0022 18.0019 15.0135L17.8288 15.1131C17.788 15.1368 17.7552 15.1934 17.7552 15.2398L18.1547 15.4718Z" fill="#FFDD94"/>
<path d="M17.341 16.3373L16.9416 16.1054C16.9223 16.094 16.9042 16.0963 16.8861 16.1076C16.8669 16.1178 16.8488 16.137 16.8341 16.1619L16.7119 16.3735C16.6836 16.4222 16.6847 16.4753 16.713 16.4923L17.1113 16.7243C17.083 16.7073 17.083 16.6541 17.1113 16.6043L17.2324 16.3939C17.2471 16.369 17.2663 16.3497 17.2844 16.3396C17.3026 16.3282 17.3218 16.326 17.341 16.3373Z" fill="#FFDD94"/>
<path d="M18.7998 17.8542C18.9673 17.5441 19.2076 17.1157 19.3604 16.7131C19.2444 16.5481 19.1601 16.3607 19.0904 16.1553C18.9466 15.7314 19.5439 15.5377 19.7641 15.8608C19.7796 15.8572 19.7958 15.8563 19.8117 15.8543C19.8065 15.8346 19.8038 15.8118 19.7979 15.7929C19.8426 15.7455 19.8598 15.6865 19.8445 15.6522L19.7775 15.5069C19.766 15.4813 19.7388 15.4776 19.7105 15.4941C19.7009 15.4995 19.6913 15.5073 19.682 15.5171C19.629 15.4539 19.5753 15.3933 19.515 15.3425C19.5489 15.2839 19.5488 15.2307 19.5198 15.2142L19.3973 15.1445C19.3831 15.136 19.3645 15.1384 19.3458 15.1493C19.3271 15.1599 19.3084 15.179 19.2939 15.204C19.2143 15.1877 19.1346 15.1721 19.0507 15.1673C19.0679 15.1067 19.0504 15.067 19.0128 15.0711L18.8536 15.0874C18.8443 15.0882 18.8347 15.0917 18.8252 15.0972C18.7964 15.1139 18.769 15.1495 18.7577 15.1886C18.6644 15.2192 18.5704 15.2518 18.4743 15.2956C18.4741 15.2409 18.4408 15.2218 18.4003 15.2452L18.2277 15.3449C18.1872 15.3681 18.1541 15.4257 18.1542 15.4713C18.0574 15.5479 17.9636 15.6237 17.8741 15.7062C17.8597 15.6745 17.8322 15.6704 17.8033 15.6871C17.7939 15.6926 17.7842 15.7004 17.775 15.7101L17.6155 15.8778C17.5787 15.9167 17.5608 15.9768 17.5761 16.0113C17.4953 16.1186 17.4153 16.2263 17.3418 16.3377C17.3222 16.3258 17.3034 16.3284 17.2847 16.3392C17.2659 16.3501 17.2471 16.3692 17.2327 16.3942L17.111 16.605C17.0829 16.6543 17.0831 16.7075 17.1113 16.7244C17.0574 16.8471 17.0035 16.9696 16.9582 17.0931C16.9423 17.0944 16.9325 17.0979 16.9229 17.1033C16.8944 17.1198 16.8676 17.1546 16.8558 17.1939L16.7905 17.4152C16.7748 17.4677 16.793 17.5061 16.8306 17.5027C16.8107 17.6214 16.7922 17.7402 16.7824 17.8573C16.7347 17.8848 16.7016 17.9415 16.7017 17.988L16.7023 18.1865C16.7024 18.2329 16.7357 18.2509 16.7762 18.2277C16.7939 18.3289 16.8129 18.426 16.84 18.5143C16.796 18.5612 16.778 18.6207 16.794 18.654L16.8603 18.7995C16.8724 18.8251 16.8996 18.8292 16.9283 18.8125C16.9377 18.8071 16.9473 18.7995 16.9565 18.7897C17.0088 18.8533 17.0633 18.9135 17.1227 18.9647C17.0896 19.022 17.0898 19.0761 17.1181 19.093L17.2405 19.1619C17.255 19.1703 17.2739 19.1677 17.2926 19.1569C17.3114 19.146 17.3302 19.1269 17.3446 19.1019C17.4235 19.1204 17.5039 19.1347 17.5878 19.1386C17.5699 19.1996 17.5881 19.239 17.625 19.2361L17.7783 19.2201C18.1866 18.8157 18.5263 18.3604 18.7998 17.8542Z" fill="#FEBB61"/>
<path d="M18.3015 18.6253C18.4865 18.3825 18.653 18.1261 18.7998 17.8542C18.9673 17.5441 19.2076 17.1157 19.3604 16.7131C19.2443 16.5481 19.1601 16.3607 19.0904 16.1553C19.0092 15.916 19.1656 15.7546 19.3556 15.7136C19.1242 15.4717 18.7452 15.4435 18.3154 15.6912C17.6126 16.0975 17.0446 17.0807 17.0469 17.8876C17.0491 18.687 17.609 19.0118 18.3015 18.6253Z" fill="#EFA143"/>
<path d="M18.3008 18.6262C18.4127 18.4795 18.5167 18.3266 18.6146 18.1689C18.4978 18.2771 18.3764 18.3754 18.2481 18.4495C17.7487 18.7383 17.3168 18.6558 17.1072 18.2947C17.2694 18.7863 17.7418 18.9379 18.3008 18.6262Z" fill="#FFDD94"/>
<path d="M18.8691 16.9116C18.9049 17.0172 18.8928 17.1462 18.8224 17.2927C18.7732 17.3964 18.6972 17.4666 18.6213 17.5268C18.5754 17.5654 18.5276 17.5971 18.4799 17.6307L18.4807 17.8866L18.3428 17.9662L18.3421 17.7143L18.2378 17.7746L18.2385 18.0264L18.1007 18.106L18.0999 17.844L17.8295 18.0001C17.8382 17.9321 17.8468 17.8702 17.8555 17.8041C17.882 17.7888 17.9085 17.7735 17.935 17.7582C17.9881 17.7276 18.0039 17.7001 18.0038 17.6392C18.0031 17.4239 18.0025 17.2107 18.0019 16.9974C18.0017 16.9243 17.9787 16.9092 17.9133 16.9448C17.885 16.9611 17.8567 16.9775 17.8284 16.9938L17.828 16.8293L18.0966 16.6742L18.0959 16.4203L18.2337 16.3407L18.2344 16.5864L18.3387 16.5262L18.338 16.2805L18.4759 16.2009L18.4766 16.4548C18.5756 16.3976 18.6623 16.3903 18.696 16.3973C18.82 16.4194 18.8329 16.6295 18.7537 16.7668C18.736 16.7973 18.7167 16.8248 18.6973 16.8523L18.715 16.8522C18.7822 16.8398 18.8459 16.8417 18.8691 16.9116ZM18.5288 17.3788C18.5923 17.3136 18.6187 17.2536 18.6168 17.1876C18.6148 17.1236 18.5829 17.0973 18.5209 17.1046C18.4645 17.1117 18.4061 17.1407 18.3465 17.1751C18.3107 17.1958 18.2745 17.2184 18.2381 17.2395L18.239 17.5827C18.2638 17.5688 18.2885 17.5552 18.3132 17.541C18.3871 17.4983 18.46 17.4505 18.5288 17.3788ZM18.2367 16.7723L18.2376 17.083C18.2577 17.072 18.2777 17.061 18.2975 17.0495C18.3544 17.0167 18.4101 16.9802 18.4638 16.928C18.5203 16.873 18.5537 16.8069 18.5536 16.746C18.5552 16.6841 18.5232 16.6537 18.4666 16.662C18.4177 16.6701 18.3682 16.6936 18.3174 16.723C18.2909 16.7383 18.264 16.7552 18.2367 16.7723Z" fill="#FFDD94"/>
<path d="M18.5919 9.137L17.1103 6.2688L17.733 9.18161L18.8499 15.1468L17.234 19.3638L18.4675 19.3793L19.9514 18.4822L19.8675 14.8302L18.5919 9.137Z" fill="#4C5671"/>
<path d="M15.9028 10.8857L15.5041 11.1171L15.5035 11.1161L15.9022 10.8848L15.9028 10.8857Z" fill="#FFDD94"/>
<path d="M18.0742 12.336L18.473 12.1042C18.4207 12.168 18.3662 12.2281 18.3067 12.2794L17.908 12.5111C17.9675 12.4598 18.0219 12.3998 18.0742 12.336Z" fill="#FEBB61"/>
<path d="M18.2545 11.774L18.6533 11.5422C18.6357 11.6435 18.6166 11.7406 18.5895 11.8289L18.1908 12.0607C18.2178 11.9723 18.2369 11.8752 18.2545 11.774Z" fill="#FEBB61"/>
<path d="M16.2731 8.73491L16.6719 8.50317C16.7651 8.53374 16.8591 8.56639 16.9552 8.61025L16.5565 8.84199C16.4603 8.79813 16.3664 8.76548 16.2731 8.73491Z" fill="#FEBB61"/>
<path d="M18.2002 11.0491L18.5989 10.8174C18.6189 10.9362 18.6373 11.0549 18.6471 11.172L18.2484 11.4038C18.2386 11.2867 18.2201 11.1679 18.2002 11.0491Z" fill="#FEBB61"/>
<path d="M16.8766 9.01763L17.2753 8.78589C17.3721 8.86255 17.4659 8.93835 17.5554 9.02079L17.1567 9.25253C17.0672 9.17009 16.9733 9.09429 16.8766 9.01763Z" fill="#FEBB61"/>
<path d="M17.4547 9.55767L17.8534 9.32593C17.9342 9.43322 18.0142 9.54096 18.0877 9.65242L17.6889 9.88416C17.6154 9.7727 17.5354 9.66496 17.4547 9.55767Z" fill="#FEBB61"/>
<path d="M17.9194 10.2708L18.3182 10.0391C18.3721 10.1617 18.426 10.2843 18.4713 10.4077L18.0725 10.6394C18.0273 10.516 17.9733 10.3934 17.9194 10.2708Z" fill="#FEBB61"/>
<path d="M15.5668 9.39388L15.1685 9.62584C15.1481 9.61341 15.1289 9.6123 15.1153 9.6202L15.5148 9.38825C15.5283 9.38145 15.5465 9.38256 15.5668 9.39388Z" fill="#FFDD94"/>
<path d="M15.5974 10.1236C15.6041 10.1191 15.6121 10.1179 15.6211 10.1191L15.2228 10.3499C15.2137 10.3499 15.2058 10.351 15.199 10.3556L15.5974 10.1236Z" fill="#FFDD94"/>
<path d="M15.7196 8.80869C15.7286 8.81433 15.7388 8.82228 15.7479 8.83135L15.3484 9.0633C15.3394 9.05313 15.3303 9.04634 15.3201 9.04065C15.3009 9.02938 15.2828 9.02705 15.2692 9.03501L15.6675 8.80306C15.6811 8.7951 15.7004 8.79736 15.7196 8.80869Z" fill="#FFDD94"/>
<path d="M16.2662 12.147L16.6656 11.915C16.66 11.9263 16.6532 11.9343 16.6452 11.9388L16.2469 12.1708C16.2548 12.1662 16.2616 12.1583 16.2662 12.147Z" fill="#FFDD94"/>
<path d="M17.8413 12.4536C17.8549 12.5 17.8481 12.534 17.8278 12.5464L17.4283 12.7772C17.4487 12.7659 17.4566 12.732 17.443 12.6845L17.8413 12.4536Z" fill="#FFDD94"/>
<path d="M18.3064 12.2793C18.3404 12.337 18.3392 12.3902 18.3109 12.4072L17.9126 12.6392C17.9409 12.6222 17.9409 12.569 17.9081 12.5113L18.3064 12.2793Z" fill="#FFDD94"/>
<path d="M18.0721 10.6397L18.4716 10.4077C18.4874 10.4088 18.4965 10.4122 18.5067 10.4179C18.535 10.4349 18.5621 10.4688 18.5734 10.5084L18.6391 10.7302C18.6504 10.7698 18.6436 10.8004 18.6232 10.8128L18.2249 11.0448C18.2453 11.0324 18.2521 11.0007 18.2396 10.9622L18.1751 10.7404C18.1627 10.7008 18.1367 10.6669 18.1084 10.6499C18.0982 10.6442 18.088 10.6408 18.0721 10.6397Z" fill="#FFDD94"/>
<path d="M17.4147 9.42439L17.2563 9.25692C17.2461 9.24675 17.2371 9.2388 17.2269 9.23316C17.2088 9.22299 17.1907 9.22067 17.176 9.22863L17.5754 8.99778C17.589 8.98872 17.6071 8.99098 17.6264 9.00231C17.6354 9.00684 17.6456 9.01474 17.6546 9.02496L17.8142 9.19238C17.8504 9.23089 17.8685 9.29201 17.8538 9.32593L17.4544 9.55794C17.4702 9.52285 17.4521 9.46285 17.4147 9.42439Z" fill="#FFDD94"/>
<path d="M16.2729 8.73524C16.2616 8.69562 16.2345 8.66053 16.205 8.64357C16.196 8.63788 16.1869 8.63451 16.1768 8.6334L16.127 8.62887L15.9799 8.71374C15.8961 8.71827 15.8169 8.73408 15.7366 8.75104C15.7219 8.72502 15.7038 8.70695 15.6845 8.69562C15.6698 8.68766 15.6551 8.68313 15.6426 8.68656C15.6393 8.68766 15.637 8.68882 15.6336 8.69109L15.5114 8.7601L15.9097 8.52925L16.0319 8.45913H16.033C16.0466 8.45118 16.0647 8.45344 16.084 8.46367C16.1021 8.47494 16.1213 8.49416 16.136 8.51908C16.1541 8.51571 16.1722 8.51118 16.1915 8.50776L16.3929 8.39007C16.3997 8.3867 16.4076 8.38443 16.4167 8.38554L16.5762 8.40256C16.5853 8.40256 16.5943 8.40593 16.6045 8.41156C16.6328 8.42852 16.6611 8.46367 16.6724 8.50323L16.2729 8.73524Z" fill="#FFDD94"/>
<path d="M18.5893 11.8291C18.6334 11.8766 18.6515 11.9355 18.6357 11.9683L18.5689 12.1143C18.5655 12.1222 18.5599 12.129 18.5531 12.1324L18.1548 12.3643C18.1615 12.3598 18.1661 12.3542 18.1706 12.3462L18.2362 12.2002C18.2532 12.1674 18.2351 12.1075 18.191 12.0611L18.5893 11.8291Z" fill="#FFDD94"/>
<path d="M18.7273 11.3029V11.5009C18.7273 11.5235 18.7194 11.5405 18.7058 11.5474L18.3075 11.7793C18.32 11.7714 18.3279 11.7556 18.329 11.7329V11.5349C18.329 11.4885 18.2962 11.4319 18.2487 11.4036L18.647 11.1716C18.6945 11.1999 18.7285 11.2565 18.7273 11.3029Z" fill="#FFDD94"/>
<path d="M16.867 12.5576L17.2654 12.3257C17.2654 12.354 17.2563 12.3732 17.2416 12.3811L16.8433 12.6131C16.858 12.6052 16.8659 12.5859 16.867 12.5576Z" fill="#FFDD94"/>
<path d="M16.8761 9.01824C16.8772 8.97182 16.8432 8.91524 16.8036 8.89148L16.6305 8.79192C16.6113 8.78059 16.5932 8.77943 16.5796 8.78623L16.979 8.55538C16.9915 8.54747 17.0096 8.54864 17.0288 8.55991L17.202 8.65947C17.2427 8.68323 17.2755 8.73981 17.2755 8.78623L16.8761 9.01824Z" fill="#FFDD94"/>
<path d="M17.6897 9.88369L18.0892 9.65174C18.1084 9.64041 18.1265 9.64268 18.1446 9.65395C18.1639 9.66417 18.182 9.6834 18.1967 9.70832L18.3189 9.91989C18.3472 9.96856 18.346 10.0217 18.3178 10.0387L17.9194 10.2707C17.9477 10.2537 17.9477 10.2005 17.9194 10.1507L17.7984 9.94027C17.7836 9.91535 17.7644 9.89613 17.7463 9.88596C17.7282 9.87463 17.709 9.87237 17.6897 9.88369Z" fill="#FFDD94"/>
<path d="M16.8031 8.89119C16.8436 8.91455 16.8767 8.97193 16.8766 9.0176C16.9733 9.09426 17.0672 9.17006 17.1567 9.2525C17.1711 9.22077 17.1986 9.21681 17.2274 9.23349C17.2369 9.23896 17.2465 9.24663 17.2558 9.2565L17.4153 9.42422C17.452 9.46297 17.47 9.52316 17.4547 9.5576C17.5354 9.6649 17.6154 9.77263 17.6889 9.88409C17.7085 9.87211 17.7273 9.87467 17.7461 9.88552C17.7649 9.89636 17.7837 9.91549 17.7981 9.94046L17.9198 10.1513C17.9478 10.2007 17.9477 10.2539 17.9194 10.2708C17.9733 10.3934 18.0273 10.516 18.0725 10.6394C18.0885 10.6407 18.0983 10.6442 18.1078 10.6497C18.1364 10.6662 18.1632 10.701 18.175 10.7401L18.2402 10.9616C18.256 11.0139 18.2378 11.0525 18.2002 11.0491C18.2201 11.1678 18.2386 11.2866 18.2484 11.4037C18.2961 11.4312 18.3292 11.4877 18.3291 11.5343L18.3285 11.7327C18.3284 11.7792 18.295 11.7973 18.2546 11.774C18.2369 11.8752 18.2178 11.9723 18.1908 12.0607C18.2348 12.1077 18.2527 12.1671 18.2367 12.2002L18.1704 12.3458C18.1584 12.3713 18.1312 12.3755 18.1025 12.3589C18.0931 12.3535 18.0835 12.3458 18.0742 12.3359C18.0219 12.3997 17.9675 12.4597 17.908 12.511C17.9411 12.5684 17.941 12.6224 17.9127 12.6393L17.7902 12.7083C17.7757 12.7166 17.7569 12.714 17.7381 12.7032C17.7193 12.6923 17.7006 12.6732 17.6862 12.6482C17.6072 12.6667 17.5269 12.681 17.4429 12.6849C17.4608 12.746 17.4426 12.7853 17.4057 12.7824L17.2458 12.7657C17.2366 12.7649 17.2269 12.7615 17.2174 12.756C17.1886 12.7393 17.1612 12.7037 17.1499 12.6646C17.0573 12.6345 16.9634 12.6018 16.8665 12.5575C16.8664 12.6123 16.833 12.6313 16.7926 12.6079L16.6199 12.5082C16.5794 12.4849 16.5463 12.4275 16.5464 12.381C16.4504 12.3056 16.3558 12.2294 16.2663 12.147C16.2519 12.1787 16.2244 12.1827 16.1956 12.166C16.1861 12.1605 16.1764 12.1528 16.1672 12.1429L16.0084 11.9756C15.9709 11.9357 15.9537 11.8759 15.9683 11.841C15.8876 11.7345 15.8083 11.628 15.7348 11.5158C15.7145 11.5265 15.6957 11.524 15.677 11.5132C15.6583 11.5024 15.6397 11.4833 15.6256 11.4586L15.5039 11.2486C15.4751 11.1987 15.4753 11.1448 15.5043 11.1291C15.4496 11.0061 15.3964 10.8839 15.3512 10.7605C15.3348 10.7589 15.3253 10.7555 15.316 10.7501C15.2874 10.7336 15.26 10.698 15.2487 10.6589L15.1828 10.437C15.1677 10.3859 15.1852 10.347 15.2228 10.3504C15.2029 10.2316 15.1844 10.1128 15.1746 9.99574C15.1269 9.96821 15.0938 9.91169 15.0939 9.8652L15.0945 9.6668C15.0946 9.62027 15.128 9.60212 15.1684 9.62548C15.1861 9.52424 15.2052 9.42717 15.2329 9.33925C15.1882 9.29181 15.171 9.2328 15.1863 9.19841L15.2533 9.05329C15.2647 9.02755 15.2919 9.02394 15.3203 9.04033C15.3298 9.04584 15.3395 9.05359 15.3488 9.06353C15.4018 9.00016 15.4555 8.93973 15.5157 8.88882C15.4819 8.83021 15.482 8.77706 15.511 8.76055L15.6335 8.69075C15.6476 8.68226 15.6663 8.68471 15.6849 8.69551C15.7036 8.7063 15.7224 8.72543 15.7368 8.75039C15.8165 8.73399 15.8961 8.71844 15.9801 8.71372C15.9629 8.65304 15.9803 8.61328 16.018 8.61749L16.1771 8.63373C16.1864 8.63458 16.1961 8.63803 16.2055 8.6435C16.2344 8.66017 16.2618 8.69576 16.2731 8.73488C16.3664 8.76545 16.4603 8.7981 16.5565 8.84196C16.5566 8.78714 16.59 8.76813 16.6304 8.79149L16.8031 8.89119Z" fill="#EFA143"/>
<path d="M17.9839 11.434C17.9816 12.242 17.4102 12.5678 16.7074 12.1616C16.0047 11.7565 15.4367 10.7721 15.4389 9.96518C15.4412 9.15837 16.0126 8.83248 16.7154 9.2376C17.4181 9.64383 17.9861 10.6272 17.9839 11.434Z" fill="#FEBB61"/>
<path d="M16.7826 11.9959C16.0799 11.5908 15.5118 10.6063 15.5141 9.79945C15.5145 9.64617 15.5357 9.51047 15.5742 9.39355C15.489 9.54042 15.4396 9.73193 15.4389 9.96521C15.4367 10.7721 16.0047 11.7565 16.7074 12.1617C17.2764 12.4905 17.7591 12.3392 17.9235 11.8411C17.7138 12.202 17.282 12.2846 16.7826 11.9959Z" fill="#FFDD94"/>
<path d="M17.2698 11.1321C17.3084 11.2923 17.2947 11.4181 17.2163 11.4892C17.162 11.5395 17.0803 11.5209 16.996 11.4916C16.9454 11.4737 16.894 11.4491 16.8407 11.4255L16.8399 11.7058L16.69 11.6192L16.6908 11.343L16.5764 11.277L16.5756 11.5532L16.4257 11.4666L16.4265 11.1802L16.1302 11.0092C16.1402 10.9465 16.1493 10.8885 16.1592 10.8278C16.1894 10.8453 16.2177 10.8616 16.2461 10.878C16.3055 10.9123 16.3216 10.9022 16.3218 10.8339C16.3233 10.601 16.324 10.3666 16.3238 10.1326C16.324 10.0521 16.2983 10.0067 16.2283 9.96525C16.1972 9.94733 16.1653 9.9289 16.1343 9.91097L16.1348 9.72954L16.4301 9.90008L16.4309 9.62183L16.5808 9.70837L16.5801 9.97849L16.6945 10.0446L16.6952 9.77443L16.8451 9.86098L16.8444 10.1402C16.9526 10.2027 17.0473 10.3044 17.0854 10.356C17.2199 10.5357 17.2335 10.7804 17.1454 10.8296C17.1267 10.8403 17.1044 10.8448 17.084 10.8523L17.1026 10.8733C17.1761 10.9453 17.2443 11.0266 17.2698 11.1321ZM16.8964 11.2126C16.9657 11.221 16.9942 11.1895 16.9935 11.1145C16.9919 11.0442 16.9566 10.9738 16.8902 10.9058C16.8256 10.8396 16.7587 10.7968 16.6909 10.7577C16.6749 10.7485 16.6588 10.7394 16.6428 10.7303C16.6292 10.7225 16.6152 10.7148 16.6013 10.7068C16.5944 10.7028 16.5875 10.6987 16.5807 10.6945L16.5796 11.0695C16.6095 11.0876 16.6392 11.1058 16.6688 11.1229C16.7465 11.1678 16.8231 11.205 16.8964 11.2126ZM16.5821 10.1848L16.5812 10.5233C16.6051 10.5379 16.6287 10.5523 16.652 10.5658C16.712 10.6004 16.7703 10.629 16.8278 10.6401C16.89 10.6525 16.9274 10.6211 16.9285 10.5553C16.9295 10.4896 16.8951 10.4166 16.8331 10.3543C16.7797 10.3013 16.7255 10.2638 16.6703 10.2319C16.6412 10.2151 16.6118 10.1999 16.5821 10.1848Z" fill="#FFDD94"/>
<path d="M13.7322 2.23828L15.5614 5.88971L15.8506 9.89318L14.6726 14.9098L12.325 19.7563L8.73412 18.7373L12.475 16.4219L13.7322 12.0062L14.8966 9.7599L15.0025 6.09051L13.7322 2.23828Z" fill="#373F51"/>
<path d="M9.49291 8.01427L11.0524 5.1275L13.7322 2.23828L10.6266 4.56785L8.92824 7.43088L6.21081 9.46908L4.41538 15.583L6.5907 10.0029L9.49291 8.01427Z" fill="#4C5671"/>
<path d="M11.7097 15.6768L11.311 15.9081L11.3104 15.9072L11.7091 15.6758L11.7097 15.6768Z" fill="#FFDD94"/>
<path d="M13.8778 17.127L14.2766 16.8953C14.2243 16.959 14.1698 17.0191 14.1104 17.0704L13.7116 17.3021C13.7711 17.2508 13.8255 17.1908 13.8778 17.127Z" fill="#FEBB61"/>
<path d="M14.0582 16.565L14.4569 16.3333C14.4393 16.4345 14.4202 16.5316 14.3932 16.6199L13.9944 16.8517C14.0214 16.7633 14.0405 16.6662 14.0582 16.565Z" fill="#FEBB61"/>
<path d="M12.0767 13.5259L12.4755 13.2942C12.5687 13.3248 12.6627 13.3574 12.7588 13.4013L12.3601 13.633C12.2639 13.5891 12.17 13.5565 12.0767 13.5259Z" fill="#FEBB61"/>
<path d="M14.0038 15.8401L14.4025 15.6084C14.4225 15.7272 14.441 15.8459 14.4508 15.963L14.052 16.1948C14.0422 16.0777 14.0237 15.9589 14.0038 15.8401Z" fill="#FEBB61"/>
<path d="M12.6802 13.8086L13.0789 13.5769C13.1757 13.6536 13.2696 13.7294 13.3591 13.8118L12.9603 14.0435C12.8708 13.9611 12.7769 13.8853 12.6802 13.8086Z" fill="#FEBB61"/>
<path d="M13.2583 14.3487L13.657 14.1169C13.7378 14.2242 13.8178 14.332 13.8913 14.4434L13.4925 14.6752C13.419 14.5637 13.339 14.456 13.2583 14.3487Z" fill="#FEBB61"/>
<path d="M13.723 15.0618L14.1218 14.8301C14.1757 14.9527 14.2296 15.0753 14.2749 15.1987L13.8761 15.4305C13.8309 15.307 13.7769 15.1844 13.723 15.0618Z" fill="#FEBB61"/>
<path d="M11.3705 14.1849L10.9721 14.4169C10.9518 14.4044 10.9325 14.4033 10.9189 14.4112L11.3184 14.1793C11.332 14.1725 11.3501 14.1736 11.3705 14.1849Z" fill="#FFDD94"/>
<path d="M11.401 14.9146C11.4078 14.9101 11.4157 14.9089 11.4247 14.9101L11.0264 15.1409C11.0174 15.1409 11.0095 15.142 11.0027 15.1466L11.401 14.9146Z" fill="#FFDD94"/>
<path d="M11.5232 13.5997C11.5322 13.6053 11.5424 13.6133 11.5515 13.6224L11.152 13.8543C11.143 13.8441 11.1339 13.8374 11.1237 13.8317C11.1045 13.8204 11.0864 13.8181 11.0728 13.826L11.4711 13.5941C11.4847 13.5861 11.5039 13.5884 11.5232 13.5997Z" fill="#FFDD94"/>
<path d="M12.0697 16.938L12.4692 16.7061C12.4635 16.7173 12.4567 16.7253 12.4488 16.7298L12.0505 16.9618C12.0584 16.9572 12.0652 16.9493 12.0697 16.938Z" fill="#FFDD94"/>
<path d="M13.645 17.2446C13.6586 17.291 13.6518 17.325 13.6314 17.3374L13.2319 17.5682C13.2523 17.5569 13.2602 17.523 13.2466 17.4755L13.645 17.2446Z" fill="#FFDD94"/>
<path d="M14.11 17.0703C14.1439 17.128 14.1428 17.1812 14.1145 17.1982L13.7162 17.4302C13.7445 17.4132 13.7445 17.36 13.7117 17.3023L14.11 17.0703Z" fill="#FFDD94"/>
<path d="M13.8758 15.4307L14.2752 15.1987C14.2911 15.1998 14.3001 15.2033 14.3103 15.2089C14.3386 15.2259 14.3658 15.2598 14.3771 15.2995L14.4427 15.5212C14.454 15.5609 14.4472 15.5914 14.4269 15.6039L14.0285 15.8358C14.0489 15.8234 14.0557 15.7917 14.0433 15.7532L13.9788 15.5314C13.9663 15.4918 13.9403 15.4579 13.912 15.4409C13.9018 15.4352 13.8916 15.4318 13.8758 15.4307Z" fill="#FFDD94"/>
<path d="M13.2183 14.2154L13.0599 14.0479C13.0497 14.0378 13.0407 14.0298 13.0305 14.0242C13.0124 14.014 12.9943 14.0117 12.9796 14.0196L13.379 13.7888C13.3926 13.7797 13.4107 13.782 13.4299 13.7933C13.439 13.7979 13.4492 13.8058 13.4582 13.816L13.6178 13.9834C13.654 14.0219 13.6721 14.083 13.6574 14.1169L13.2579 14.349C13.2738 14.3139 13.2557 14.2539 13.2183 14.2154Z" fill="#FFDD94"/>
<path d="M12.0766 13.5263C12.0653 13.4866 12.0381 13.4515 12.0087 13.4346C11.9996 13.4289 11.9906 13.4255 11.9804 13.4244L11.9306 13.4199L11.7835 13.5048C11.6998 13.5093 11.6205 13.5251 11.5402 13.5421C11.5255 13.516 11.5074 13.498 11.4881 13.4866C11.4734 13.4787 11.4587 13.4741 11.4463 13.4776C11.4429 13.4787 11.4406 13.4798 11.4372 13.4821L11.315 13.5511L11.7133 13.3203L11.8355 13.2502H11.8367C11.8503 13.2422 11.8684 13.2445 11.8876 13.2547C11.9057 13.266 11.9249 13.2852 11.9397 13.3101C11.9578 13.3067 11.9759 13.3022 11.9951 13.2988L12.1965 13.1811C12.2033 13.1777 12.2112 13.1754 12.2203 13.1766L12.3798 13.1936C12.3889 13.1936 12.398 13.1969 12.4081 13.2026C12.4364 13.2195 12.4647 13.2547 12.476 13.2942L12.0766 13.5263Z" fill="#FFDD94"/>
<path d="M14.3929 16.6201C14.4371 16.6676 14.4552 16.7265 14.4393 16.7593L14.3726 16.9053C14.3692 16.9132 14.3635 16.92 14.3567 16.9234L13.9584 17.1554C13.9652 17.1508 13.9697 17.1452 13.9742 17.1372L14.0399 16.9913C14.0568 16.9584 14.0387 16.8985 13.9946 16.8521L14.3929 16.6201Z" fill="#FFDD94"/>
<path d="M14.531 16.0939V16.292C14.531 16.3146 14.5231 16.3315 14.5095 16.3384L14.1112 16.5703C14.1236 16.5624 14.1315 16.5466 14.1327 16.5239V16.3259C14.1327 16.2795 14.0998 16.2229 14.0523 16.1946L14.4506 15.9626C14.4982 15.9909 14.5321 16.0475 14.531 16.0939Z" fill="#FFDD94"/>
<path d="M12.6706 17.3487L13.0689 17.1167C13.0689 17.145 13.0599 17.1642 13.0452 17.1721L12.6469 17.4041C12.6616 17.3962 12.6695 17.3769 12.6706 17.3487Z" fill="#FFDD94"/>
<path d="M12.6796 13.8093C12.6808 13.7628 12.6468 13.7063 12.6072 13.6825L12.4341 13.5829C12.4148 13.5716 12.3967 13.5704 12.3832 13.5772L12.7826 13.3464C12.7951 13.3385 12.8132 13.3397 12.8324 13.3509L13.0055 13.4505C13.0463 13.4742 13.0791 13.5308 13.0791 13.5772L12.6796 13.8093Z" fill="#FFDD94"/>
<path d="M13.4933 14.6747L13.8928 14.4428C13.912 14.4314 13.9301 14.4337 13.9482 14.445C13.9674 14.4552 13.9855 14.4744 14.0003 14.4993L14.1225 14.7109C14.1508 14.7596 14.1496 14.8127 14.1213 14.8298L13.723 15.0617C13.7513 15.0447 13.7513 14.9915 13.723 14.9418L13.6019 14.7313C13.5872 14.7064 13.568 14.6871 13.5499 14.677C13.5318 14.6656 13.5125 14.6634 13.4933 14.6747Z" fill="#FFDD94"/>
<path d="M12.6067 13.6824C12.6472 13.7058 12.6803 13.7632 12.6802 13.8089C12.7769 13.8855 12.8708 13.9613 12.9603 14.0438C12.9747 14.012 13.0022 14.0081 13.031 14.0247C13.0405 14.0302 13.0501 14.0379 13.0594 14.0478L13.2189 14.2155C13.2557 14.2542 13.2736 14.3144 13.2583 14.3489C13.339 14.4562 13.4191 14.5639 13.4926 14.6753C13.5121 14.6634 13.5309 14.6659 13.5497 14.6768C13.5685 14.6876 13.5873 14.7068 13.6017 14.7317L13.7234 14.9425C13.7515 14.992 13.7513 15.0451 13.723 15.062C13.777 15.1847 13.8309 15.3073 13.8761 15.4307C13.8921 15.432 13.9019 15.4355 13.9115 15.441C13.94 15.4575 13.9668 15.4922 13.9786 15.5314L14.0438 15.7529C14.0596 15.8052 14.0414 15.8438 14.0038 15.8403C14.0237 15.9591 14.0422 16.0779 14.052 16.195C14.0997 16.2225 14.1328 16.279 14.1327 16.3255L14.1321 16.5239C14.132 16.5704 14.0986 16.5886 14.0582 16.5652C14.0405 16.6665 14.0214 16.7636 13.9944 16.8519C14.0384 16.8989 14.0563 16.9583 14.0403 16.9915L13.9741 17.137C13.962 17.1626 13.9348 17.1667 13.9061 17.1502C13.8967 17.1447 13.8871 17.1371 13.8778 17.1272C13.8255 17.1909 13.7711 17.251 13.7116 17.3023C13.7447 17.3597 13.7446 17.4136 13.7163 17.4306L13.5938 17.4996C13.5793 17.5078 13.5605 17.5053 13.5417 17.4944C13.523 17.4836 13.5042 17.4645 13.4898 17.4395C13.4109 17.4579 13.3305 17.4723 13.2465 17.4762C13.2644 17.5373 13.2462 17.5766 13.2093 17.5736L13.0495 17.557C13.0402 17.5561 13.0305 17.5527 13.0211 17.5472C12.9922 17.5306 12.9648 17.4949 12.9535 17.4558C12.861 17.4257 12.767 17.3931 12.6701 17.3488C12.67 17.4036 12.6366 17.4226 12.5962 17.3992L12.4235 17.2995C12.383 17.2762 12.3499 17.2188 12.35 17.1723C12.254 17.0969 12.1594 17.0207 12.0699 16.9382C12.0555 16.9699 12.028 16.9739 11.9992 16.9573C11.9897 16.9518 11.9801 16.9441 11.9708 16.9342L11.8121 16.7669C11.7745 16.7269 11.7573 16.6671 11.7719 16.6323C11.6912 16.5258 11.6119 16.4193 11.5384 16.307C11.5181 16.3178 11.4993 16.3152 11.4806 16.3044C11.4619 16.2936 11.4433 16.2746 11.4293 16.2498L11.3076 16.0399C11.2788 15.99 11.2789 15.936 11.3079 15.9203C11.2532 15.7973 11.2 15.6751 11.1548 15.5517C11.1385 15.5501 11.1289 15.5468 11.1196 15.5414C11.091 15.5249 11.0637 15.4892 11.0523 15.4502L10.9864 15.2283C10.9713 15.1772 10.9888 15.1382 11.0264 15.1416C11.0065 15.0229 10.988 14.9041 10.9782 14.787C10.9305 14.7595 10.8974 14.7029 10.8975 14.6565L10.8981 14.4581C10.8982 14.4115 10.9316 14.3934 10.972 14.4167C10.9897 14.3155 11.0088 14.2184 11.0365 14.1305C10.9918 14.0831 10.9746 14.0241 10.9899 13.9897L11.0569 13.8445C11.0683 13.8188 11.0955 13.8152 11.1239 13.8316C11.1334 13.8371 11.1431 13.8448 11.1524 13.8548C11.2054 13.7914 11.2591 13.731 11.3193 13.6801C11.2855 13.6215 11.2856 13.5683 11.3146 13.5518L11.4371 13.482C11.4512 13.4735 11.4699 13.476 11.4886 13.4868C11.5073 13.4976 11.526 13.5167 11.5404 13.5417C11.6201 13.5252 11.6997 13.5097 11.7837 13.505C11.7665 13.4443 11.784 13.4045 11.8216 13.4088L11.9807 13.425C11.99 13.4258 11.9997 13.4293 12.0091 13.4348C12.038 13.4514 12.0654 13.487 12.0767 13.5261C12.17 13.5567 12.264 13.5894 12.3601 13.6332C12.3602 13.5784 12.3936 13.5594 12.434 13.5828L12.6067 13.6824Z" fill="#EFA143"/>
<path d="M13.7875 16.2251C13.7853 17.033 13.2138 17.3589 12.5111 16.9526C11.8084 16.5475 11.2403 15.5631 11.2426 14.7562C11.2448 13.9494 11.8163 13.6235 12.519 14.0286C13.2217 14.4348 13.7898 15.4182 13.7875 16.2251Z" fill="#FEBB61"/>
<path d="M12.5863 16.7869C11.8836 16.3818 11.3155 15.3973 11.3178 14.5905C11.3182 14.4372 11.3394 14.3015 11.3779 14.1846C11.2927 14.3314 11.2432 14.5229 11.2426 14.7562C11.2403 15.5631 11.8084 16.5475 12.5111 16.9527C13.0801 17.2815 13.5627 17.1302 13.7272 16.6321C13.5175 16.9931 13.0856 17.0756 12.5863 16.7869Z" fill="#FFDD94"/>
<path d="M13.0734 15.9231C13.1121 16.0833 13.0984 16.2091 13.02 16.2802C12.9657 16.3305 12.884 16.312 12.7997 16.2827C12.7491 16.2647 12.6976 16.2401 12.6444 16.2165L12.6436 16.4968L12.4937 16.4102L12.4945 16.134L12.38 16.068L12.3793 16.3442L12.2294 16.2576L12.2302 15.9713L11.9339 15.8002C11.9439 15.7376 11.9529 15.6795 11.9629 15.6189C11.993 15.6363 12.0214 15.6527 12.0498 15.669C12.1092 15.7034 12.1252 15.6932 12.1254 15.6249C12.127 15.392 12.1276 15.1576 12.1274 14.9237C12.1276 14.8432 12.102 14.7977 12.0319 14.7563C12.0009 14.7383 11.969 14.7199 11.9379 14.702L11.9384 14.5206L12.2338 14.6911L12.2346 14.4128L12.3845 14.4994L12.3837 14.7695L12.4981 14.8356L12.4989 14.5654L12.6488 14.652L12.648 14.9312C12.7562 14.9937 12.851 15.0954 12.8891 15.147C13.0236 15.3268 13.0371 15.5714 12.949 15.6206C12.9303 15.6313 12.9081 15.6358 12.8877 15.6433L12.9063 15.6643C12.9798 15.7364 13.048 15.8176 13.0734 15.9231ZM12.7001 16.0036C12.7693 16.012 12.7979 15.9805 12.7972 15.9055C12.7956 15.8352 12.7603 15.7648 12.6938 15.6968C12.6293 15.6307 12.5624 15.5879 12.4945 15.5487C12.4785 15.5395 12.4625 15.5304 12.4464 15.5213C12.4328 15.5135 12.4188 15.5058 12.405 15.4978C12.3981 15.4938 12.3912 15.4897 12.3844 15.4855L12.3833 15.8605C12.4131 15.8787 12.4429 15.8968 12.4725 15.9139C12.5502 15.9588 12.6267 15.996 12.7001 16.0036ZM12.3858 14.9759L12.3848 15.3143C12.4087 15.3289 12.4323 15.3433 12.4557 15.3568C12.5156 15.3914 12.574 15.42 12.6315 15.4311C12.6937 15.4435 12.7311 15.4121 12.7321 15.3463C12.7332 15.2806 12.6988 15.2076 12.6367 15.1453C12.5834 15.0924 12.5292 15.0548 12.474 15.0229C12.4449 15.0061 12.4155 14.9909 12.3858 14.9759Z" fill="#FFDD94"/>
<path d="M7.73098 14.0151L8.12968 14.2465L8.12911 14.2475L7.7304 14.0161L7.73098 14.0151Z" fill="#FFDD94"/>
<path d="M5.54827 15.4512L5.1495 15.2195C5.20178 15.2833 5.25623 15.3433 5.31571 15.3946L5.71449 15.6263C5.655 15.5751 5.60055 15.515 5.54827 15.4512Z" fill="#FEBB61"/>
<path d="M5.36789 14.8892L4.96912 14.6575C4.98678 14.7587 5.00587 14.8558 5.03289 14.9442L5.43167 15.1759C5.40464 15.0876 5.38555 14.9904 5.36789 14.8892Z" fill="#FEBB61"/>
<path d="M7.34937 11.8501L6.9506 11.6184C6.85733 11.649 6.76335 11.6816 6.66722 11.7255L7.06599 11.9572C7.16212 11.9134 7.2561 11.8807 7.34937 11.8501Z" fill="#FEBB61"/>
<path d="M5.42231 14.1644L5.02354 13.9326C5.00362 14.0514 4.98514 14.1702 4.97534 14.2873L5.37411 14.519C5.38391 14.4019 5.40239 14.2831 5.42231 14.1644Z" fill="#FEBB61"/>
<path d="M6.74592 12.1329L6.34715 11.9011C6.2504 11.9778 6.15653 12.0536 6.06703 12.136L6.46581 12.3678C6.55531 12.2853 6.64917 12.2095 6.74592 12.1329Z" fill="#FEBB61"/>
<path d="M6.16779 12.6729L5.76902 12.4412C5.68827 12.5485 5.60825 12.6562 5.53475 12.7677L5.93352 12.9994C6.00702 12.8879 6.08704 12.7802 6.16779 12.6729Z" fill="#FEBB61"/>
<path d="M5.70303 13.3863L5.30426 13.1545C5.25033 13.2772 5.19641 13.3997 5.15117 13.5232L5.54994 13.7549C5.59518 13.6315 5.64911 13.5089 5.70303 13.3863Z" fill="#FEBB61"/>
<path d="M8.05566 12.5091L8.45398 12.7411C8.47435 12.7286 8.49358 12.7275 8.50716 12.7354L8.10771 12.5035C8.09413 12.4967 8.07602 12.4978 8.05566 12.5091Z" fill="#FFDD94"/>
<path d="M8.0251 13.2388C8.01831 13.2343 8.01039 13.2331 8.00134 13.2343L8.39966 13.4652C8.40871 13.4652 8.41663 13.4663 8.42342 13.4708L8.0251 13.2388Z" fill="#FFDD94"/>
<path d="M7.90286 11.9239C7.89381 11.9296 7.88362 11.9375 7.87457 11.9466L8.27402 12.1785C8.28308 12.1684 8.29213 12.1616 8.30231 12.1559C8.32155 12.1446 8.33966 12.1423 8.35323 12.1502L7.95491 11.9183C7.94133 11.9103 7.9221 11.9126 7.90286 11.9239Z" fill="#FFDD94"/>
<path d="M7.35634 15.2622L6.95688 15.0303C6.96255 15.0415 6.96934 15.0495 6.97725 15.054L7.37558 15.286C7.36765 15.2815 7.36086 15.2736 7.35634 15.2622Z" fill="#FFDD94"/>
<path d="M5.78116 15.5688C5.76757 15.6153 5.77437 15.6492 5.79474 15.6616L6.19419 15.8925C6.17382 15.8811 6.1659 15.8472 6.17947 15.7997L5.78116 15.5688Z" fill="#FFDD94"/>
<path d="M5.31608 15.3945C5.28213 15.4522 5.28327 15.5054 5.31156 15.5224L5.70988 15.7544C5.68159 15.7374 5.68159 15.6842 5.7144 15.6265L5.31608 15.3945Z" fill="#FFDD94"/>
<path d="M5.55029 13.7549L5.15084 13.5229C5.135 13.5241 5.12595 13.5275 5.11577 13.5331C5.08748 13.5501 5.06031 13.5841 5.049 13.6237L4.98336 13.8455C4.97205 13.8851 4.97884 13.9156 4.99921 13.9281L5.39753 14.16C5.37716 14.1476 5.37037 14.1159 5.38282 14.0774L5.44732 13.8556C5.45977 13.816 5.48579 13.7821 5.51408 13.7651C5.52427 13.7594 5.53445 13.7561 5.55029 13.7549Z" fill="#FFDD94"/>
<path d="M6.20776 12.5396L6.36619 12.3722C6.37637 12.362 6.38543 12.354 6.39561 12.3484C6.41372 12.3382 6.43183 12.3359 6.44653 12.3439L6.04708 12.113C6.0335 12.104 6.01539 12.1062 5.99616 12.1175C5.9871 12.1221 5.97692 12.13 5.96787 12.1402L5.80832 12.3076C5.7721 12.3461 5.75399 12.4072 5.76871 12.4412L6.16816 12.6732C6.15232 12.6381 6.17043 12.5781 6.20776 12.5396Z" fill="#FFDD94"/>
<path d="M7.34952 11.8505C7.36083 11.8109 7.38799 11.7758 7.41741 11.7588C7.42647 11.7531 7.43552 11.7497 7.4457 11.7486L7.49549 11.7441L7.6426 11.829C7.72634 11.8335 7.80555 11.8493 7.88589 11.8663C7.90061 11.8402 7.91871 11.8222 7.93795 11.8109C7.95266 11.8029 7.96737 11.7984 7.97982 11.8018C7.98321 11.8029 7.98547 11.8041 7.98887 11.8063L8.11108 11.8753L7.71276 11.6445L7.59055 11.5744H7.58942C7.57584 11.5664 7.55773 11.5687 7.53849 11.5789C7.52039 11.5902 7.50115 11.6094 7.48644 11.6343C7.46834 11.6309 7.45023 11.6264 7.43099 11.623L7.22957 11.5053C7.22278 11.5019 7.21486 11.4997 7.2058 11.5008L7.04625 11.5178C7.0372 11.5178 7.02814 11.5212 7.01796 11.5268C6.98967 11.5438 6.96138 11.5789 6.95006 11.6185L7.34952 11.8505Z" fill="#FFDD94"/>
<path d="M5.03314 14.9443C4.98901 14.9919 4.9709 15.0507 4.98675 15.0835L5.05351 15.2295C5.05691 15.2374 5.06256 15.2442 5.06935 15.2476L5.46768 15.4796C5.46089 15.475 5.45636 15.4694 5.45183 15.4615L5.3862 15.3155C5.36923 15.2827 5.38733 15.2227 5.43146 15.1763L5.03314 14.9443Z" fill="#FFDD94"/>
<path d="M4.89513 14.4181V14.6162C4.89513 14.6388 4.90305 14.6557 4.91663 14.6626L5.31495 14.8945C5.3025 14.8866 5.29458 14.8708 5.29345 14.8481V14.6501C5.29345 14.6037 5.32627 14.5471 5.37379 14.5188L4.97547 14.2869C4.92794 14.3152 4.894 14.3717 4.89513 14.4181Z" fill="#FFDD94"/>
<path d="M6.75542 15.6731L6.3571 15.4412C6.3571 15.4695 6.36615 15.4887 6.38087 15.4966L6.77918 15.7286C6.76448 15.7206 6.75656 15.7014 6.75542 15.6731Z" fill="#FFDD94"/>
<path d="M6.74639 12.1335C6.74526 12.0871 6.77921 12.0305 6.81882 12.0067L6.99195 11.9072C7.01119 11.8958 7.02929 11.8947 7.04287 11.9015L6.64342 11.6706C6.63097 11.6627 6.61287 11.6639 6.59363 11.6751L6.42049 11.7747C6.37976 11.7985 6.34694 11.855 6.34694 11.9015L6.74639 12.1335Z" fill="#FFDD94"/>
<path d="M5.93276 12.9989L5.53331 12.767C5.51407 12.7556 5.49597 12.7579 5.47786 12.7692C5.45862 12.7794 5.44052 12.7986 5.42581 12.8236L5.30359 13.0351C5.2753 13.0838 5.27644 13.137 5.30473 13.154L5.70305 13.3859C5.67476 13.369 5.67476 13.3158 5.70305 13.266L5.82412 13.0555C5.83884 13.0306 5.85808 13.0114 5.87618 13.0012C5.89429 12.9899 5.91352 12.9876 5.93276 12.9989Z" fill="#FFDD94"/>
<path d="M6.81935 12.0067C6.77889 12.03 6.74576 12.0874 6.74589 12.1331C6.64914 12.2097 6.55528 12.2855 6.46578 12.368C6.45135 12.3362 6.42389 12.3323 6.39502 12.349C6.38554 12.3544 6.37592 12.3621 6.36665 12.372L6.20719 12.5397C6.1704 12.5784 6.15247 12.6386 6.16777 12.6731C6.08702 12.7804 6.007 12.8881 5.9335 12.9996C5.91393 12.9876 5.89512 12.9901 5.87634 13.001C5.85755 13.0118 5.83879 13.031 5.82439 13.0559L5.70269 13.2667C5.6746 13.3162 5.67475 13.3693 5.70303 13.3863C5.6491 13.5089 5.59517 13.6315 5.54993 13.7549C5.53396 13.7562 5.52418 13.7597 5.5146 13.7652C5.48608 13.7817 5.45926 13.8165 5.44745 13.8556L5.38223 14.0771C5.36646 14.1294 5.38466 14.168 5.42228 14.1645C5.40235 14.2833 5.38387 14.4021 5.37407 14.5192C5.32639 14.5467 5.29326 14.6032 5.29339 14.6498L5.29396 14.8482C5.29409 14.8946 5.32743 14.9128 5.36789 14.8894C5.38554 14.9907 5.40463 15.0878 5.43166 15.1761C5.38765 15.2231 5.36973 15.2825 5.38574 15.3157L5.45201 15.4612C5.46407 15.4868 5.49125 15.491 5.51996 15.4744C5.52938 15.4689 5.53896 15.4613 5.54823 15.4514C5.60051 15.5152 5.65496 15.5752 5.71444 15.6265C5.68132 15.6839 5.68147 15.7379 5.70974 15.7548L5.83224 15.8238C5.84673 15.8321 5.86554 15.8295 5.88432 15.8186C5.90311 15.8078 5.92187 15.7887 5.93627 15.7637C6.01521 15.7822 6.09557 15.7965 6.17953 15.8004C6.16161 15.8615 6.17982 15.9008 6.21671 15.8978L6.3766 15.8812C6.38589 15.8803 6.39553 15.8769 6.405 15.8715C6.43388 15.8548 6.46123 15.8191 6.47256 15.78C6.5651 15.7499 6.65908 15.7173 6.75593 15.673C6.75608 15.7278 6.78943 15.7468 6.82989 15.7234L7.00256 15.6237C7.04302 15.6004 7.07615 15.543 7.07601 15.4965C7.17205 15.4211 7.26663 15.3449 7.35613 15.2625C7.37056 15.2941 7.39802 15.2981 7.42689 15.2815C7.43637 15.276 7.44599 15.2683 7.45526 15.2584L7.614 15.0911C7.65151 15.0511 7.66871 14.9914 7.65414 14.9565C7.73489 14.85 7.81419 14.7435 7.88769 14.6312C7.90798 14.642 7.92679 14.6394 7.94548 14.6286C7.96418 14.6178 7.98276 14.5988 7.9968 14.5741L8.1185 14.3641C8.14731 14.3142 8.14716 14.2602 8.11816 14.2445C8.17281 14.1215 8.22602 13.9993 8.27126 13.8759C8.28761 13.8744 8.29712 13.871 8.30649 13.8656C8.33506 13.8491 8.3624 13.8134 8.37373 13.7744L8.43968 13.5525C8.45473 13.5014 8.43725 13.4625 8.39963 13.4659C8.41956 13.3471 8.43804 13.2283 8.44784 13.1112C8.49552 13.0837 8.52865 13.0272 8.52852 12.9807L8.52796 12.7823C8.52782 12.7358 8.49448 12.7176 8.45402 12.741C8.43637 12.6397 8.41728 12.5426 8.38953 12.4547C8.43426 12.4073 8.45146 12.3483 8.43617 12.3139L8.36918 12.1688C8.35773 12.143 8.33054 12.1394 8.30215 12.1558C8.29261 12.1613 8.28294 12.1691 8.27369 12.179C8.22068 12.1156 8.16696 12.0552 8.10675 12.0043C8.14059 11.9457 8.14044 11.8925 8.11145 11.876L7.98895 11.8062C7.97481 11.7977 7.95619 11.8002 7.9375 11.811C7.9188 11.8218 7.90004 11.8409 7.88564 11.8659C7.80598 11.8495 7.72634 11.8339 7.64238 11.8292C7.65958 11.7685 7.64209 11.7288 7.60448 11.733L7.44532 11.7492C7.43602 11.7501 7.42638 11.7535 7.41691 11.759C7.38803 11.7756 7.36069 11.8112 7.34936 11.8504C7.25609 11.8809 7.16211 11.9136 7.06598 11.9574C7.06583 11.9026 7.03248 11.8836 6.99202 11.907L6.81935 12.0067Z" fill="#FEBB61"/>
<path d="M5.63859 14.5493C5.64085 15.3572 6.21231 15.6831 6.91502 15.2769C7.61774 14.8717 8.18581 13.8873 8.18354 13.0804C8.18128 12.2736 7.60982 11.9477 6.9071 12.3528C6.20438 12.7591 5.63632 13.7424 5.63859 14.5493Z" fill="#EFA143"/>
<path d="M6.83984 15.1111C7.54256 14.706 8.11062 13.7216 8.10836 12.9147C8.10793 12.7614 8.08673 12.6257 8.0482 12.5088C8.13343 12.6557 8.18287 12.8472 8.18353 13.0804C8.18579 13.8873 7.61773 14.8718 6.91501 15.2769C6.34606 15.6058 5.86339 15.4545 5.69896 14.9563C5.9086 15.3173 6.34047 15.3998 6.83984 15.1111Z" fill="#FFDD94"/>
<path d="M7.46094 13.5733C7.49664 13.6788 7.48462 13.8078 7.41422 13.9543C7.36494 14.058 7.28902 14.1282 7.21306 14.1884C7.16715 14.2271 7.11943 14.2587 7.07173 14.2923L7.07246 14.5483L6.9346 14.6279L6.93388 14.376L6.82961 14.4362L6.83032 14.6881L6.69246 14.7677L6.69172 14.5056L6.4213 14.6618C6.42996 14.5937 6.43863 14.5318 6.4473 14.4657C6.47381 14.4504 6.50032 14.4351 6.52683 14.4198C6.57986 14.3892 6.59572 14.3617 6.59554 14.3008C6.59493 14.0855 6.59433 13.8723 6.59372 13.659C6.59352 13.5859 6.57045 13.5708 6.50505 13.6064C6.47677 13.6228 6.4485 13.6391 6.42022 13.6554L6.41975 13.4909L6.6884 13.3358L6.68768 13.0819L6.82554 13.0023L6.82624 13.2481L6.93052 13.1879L6.92982 12.9421L7.06768 12.8625L7.0684 13.1164C7.16738 13.0593 7.2541 13.0519 7.28776 13.059C7.41174 13.081 7.42473 13.2911 7.34545 13.4284C7.32784 13.459 7.30844 13.4864 7.28905 13.5139L7.30675 13.5139C7.37399 13.5014 7.43773 13.5033 7.46094 13.5733ZM7.12059 14.0404C7.18413 13.9752 7.21052 13.9152 7.20856 13.8492C7.20661 13.7852 7.17467 13.759 7.11273 13.7663C7.05631 13.7733 6.9979 13.8023 6.93828 13.8367C6.90251 13.8574 6.86631 13.88 6.82986 13.9011L6.83083 14.2443C6.85558 14.2305 6.88032 14.2169 6.90496 14.2026C6.97886 14.16 7.05175 14.1121 7.12059 14.0404ZM6.82853 13.4339L6.82942 13.7446C6.8495 13.7336 6.86946 13.7226 6.88928 13.7112C6.9462 13.6783 7.00189 13.6419 7.05558 13.5897C7.11207 13.5346 7.14552 13.4685 7.14535 13.4076C7.14694 13.3458 7.115 13.3153 7.05836 13.3236C7.00953 13.3317 6.95998 13.3553 6.90919 13.3846C6.88267 13.3999 6.85581 13.4168 6.82853 13.4339Z" fill="#FFDD94"/>
<path d="M10.2612 7.02666L9.86242 6.79492C9.9147 6.85871 9.96915 6.91877 10.0286 6.97005L10.4274 7.20179C10.3679 7.15051 10.3135 7.09045 10.2612 7.02666Z" fill="#FEBB61"/>
<path d="M10.0808 6.46465L9.68204 6.23291C9.6997 6.33415 9.71879 6.43126 9.74582 6.51961L10.1446 6.75135C10.1176 6.66301 10.0985 6.56589 10.0808 6.46465Z" fill="#FEBB61"/>
<path d="M12.0623 3.42559L11.6635 3.19385C11.5703 3.22442 11.4763 3.25707 11.3801 3.30093L11.7789 3.53267C11.875 3.48881 11.969 3.45616 12.0623 3.42559Z" fill="#FEBB61"/>
<path d="M10.1352 5.7398L9.73647 5.50806C9.71654 5.62684 9.69806 5.7456 9.68826 5.86269L10.087 6.09444C10.0968 5.97734 10.1153 5.85858 10.1352 5.7398Z" fill="#FEBB61"/>
<path d="M11.4588 3.7083L11.0601 3.47656C10.9633 3.55322 10.8695 3.62902 10.78 3.71146L11.1787 3.9432C11.2682 3.86076 11.3621 3.78496 11.4588 3.7083Z" fill="#FEBB61"/>
<path d="M10.8807 4.24834L10.4819 4.0166C10.4012 4.1239 10.3212 4.23163 10.2477 4.34309L10.6464 4.57483C10.7199 4.46337 10.8 4.35564 10.8807 4.24834Z" fill="#FEBB61"/>
<path d="M10.416 4.96148L10.0172 4.72974C9.96326 4.85236 9.90933 4.97495 9.86409 5.09838L10.2629 5.33012C10.3081 5.20669 10.362 5.0841 10.416 4.96148Z" fill="#FEBB61"/>
<path d="M12.8616 3.60654L12.6678 3.49374C12.6543 3.48577 12.635 3.48803 12.6158 3.49937C12.6067 3.50499 12.5965 3.51296 12.5875 3.52203L12.8228 3.65866C12.8357 3.64124 12.8484 3.62379 12.8616 3.60654Z" fill="#FFDD94"/>
<path d="M10.029 6.96997C9.99506 7.02766 9.99619 7.08086 10.0245 7.09783L10.4228 7.32984C10.3945 7.31287 10.3945 7.25967 10.4273 7.20192L10.029 6.96997Z" fill="#FFDD94"/>
<path d="M10.2632 5.33034L9.86376 5.09839C9.84792 5.09949 9.83887 5.10292 9.82869 5.10856C9.8004 5.12557 9.77323 5.1595 9.76192 5.19912L9.69628 5.4209C9.68497 5.46052 9.69176 5.49108 9.71213 5.50351L10.1105 5.73546C10.0901 5.72303 10.0833 5.69137 10.0957 5.65286L10.1602 5.43107C10.1727 5.39145 10.1987 5.35753 10.227 5.34057C10.2372 5.33487 10.2474 5.3315 10.2632 5.33034Z" fill="#FFDD94"/>
<path d="M10.9207 4.11507L11.0791 3.94759C11.0893 3.93743 11.0983 3.92947 11.1085 3.92383C11.1266 3.91367 11.1447 3.91135 11.1595 3.9193L10.76 3.68845C10.7464 3.67939 10.7283 3.68166 10.7091 3.69298C10.7 3.69751 10.6898 3.70542 10.6808 3.71564L10.5212 3.88306C10.485 3.92157 10.4669 3.98268 10.4816 4.0166L10.8811 4.24861C10.8652 4.21353 10.8833 4.15352 10.9207 4.11507Z" fill="#FFDD94"/>
<path d="M12.0625 3.42591C12.0738 3.38629 12.101 3.35121 12.1304 3.33424C12.1394 3.32855 12.1485 3.32518 12.1587 3.32408L12.2085 3.31955L12.3556 3.40442C12.4393 3.40895 12.5185 3.42475 12.5989 3.44171C12.6136 3.41569 12.6317 3.39762 12.6509 3.38629C12.6656 3.37834 12.6803 3.37381 12.6928 3.37723C12.6962 3.37834 12.6984 3.3795 12.7018 3.38176L12.8241 3.45077L12.4257 3.21993L12.3035 3.14981H12.3024C12.2888 3.14185 12.2707 3.14412 12.2515 3.15434C12.2334 3.16561 12.2141 3.18484 12.1994 3.20976C12.1813 3.20639 12.1632 3.20186 12.144 3.19843L11.9425 3.08074C11.9358 3.07737 11.9278 3.0751 11.9188 3.07621L11.7592 3.09323C11.7502 3.09323 11.7411 3.0966 11.7309 3.10223C11.7026 3.1192 11.6744 3.15434 11.663 3.1939L12.0625 3.42591Z" fill="#FFDD94"/>
<path d="M9.74606 6.51978C9.70193 6.56729 9.68383 6.62614 9.69967 6.65896L9.76643 6.80494C9.76983 6.81284 9.77548 6.81964 9.78227 6.82306L10.1806 7.05502C10.1738 7.05049 10.1693 7.04485 10.1648 7.03689L10.0991 6.89091C10.0821 6.85809 10.1003 6.79814 10.1444 6.75173L9.74606 6.51978Z" fill="#FFDD94"/>
<path d="M9.60805 5.99359V6.19162C9.60805 6.21422 9.61597 6.23118 9.62955 6.23803L10.0279 6.46998C10.0154 6.46203 10.0075 6.44622 10.0064 6.42357V6.22554C10.0064 6.17913 10.0392 6.12255 10.0867 6.09426L9.68839 5.8623C9.64087 5.89059 9.60692 5.94717 9.60805 5.99359Z" fill="#FFDD94"/>
<path d="M11.4593 3.70891C11.4582 3.6625 11.4921 3.60592 11.5317 3.58216L11.7049 3.48259C11.7241 3.47126 11.7422 3.4701 11.7558 3.4769L11.3563 3.24605C11.3439 3.23815 11.3258 3.23931 11.3066 3.25058L11.1334 3.35015C11.0927 3.37391 11.0599 3.43049 11.0599 3.4769L11.4593 3.70891Z" fill="#FFDD94"/>
<path d="M10.6457 4.57437L10.2463 4.34241C10.227 4.33109 10.2089 4.33335 10.1908 4.34462C10.1716 4.35485 10.1535 4.37407 10.1388 4.39899L10.0166 4.61056C9.98828 4.65924 9.98941 4.71239 10.0177 4.72941L10.416 4.96136C10.3877 4.9444 10.3877 4.89119 10.416 4.84141L10.5371 4.63095C10.5518 4.60603 10.5711 4.5868 10.5892 4.57663C10.6073 4.56531 10.6265 4.56304 10.6457 4.57437Z" fill="#FFDD94"/>
<path d="M10.4274 7.2017C10.3943 7.25907 10.3944 7.31303 10.4227 7.33003L10.5452 7.39894C10.5597 7.40723 10.5785 7.40469 10.5973 7.39385C10.6054 7.38916 10.6134 7.38227 10.6212 7.37467C10.8888 6.82103 11.103 6.24 11.419 5.7138C11.6646 5.18706 11.9654 4.69025 12.3198 4.2293C12.4094 4.11271 12.5107 4.0236 12.6175 3.95917C12.6931 3.84185 12.7709 3.72605 12.8559 3.61423C12.8438 3.60273 12.8324 3.59016 12.8197 3.57949C12.8536 3.52089 12.8534 3.46771 12.8244 3.4512L12.7019 3.38143C12.6878 3.37293 12.6692 3.37539 12.6505 3.38615C12.6318 3.39695 12.613 3.41609 12.5986 3.44106C12.519 3.42467 12.4393 3.40911 12.3553 3.40438C12.3726 3.34369 12.3551 3.30394 12.3175 3.30817L12.1583 3.32439C12.149 3.32525 12.1394 3.3287 12.1299 3.33416C12.101 3.35084 12.0737 3.38644 12.0623 3.42553C11.9691 3.45613 11.8751 3.48877 11.779 3.53263C11.7788 3.47781 11.7455 3.4588 11.705 3.48216L11.5323 3.58187C11.4919 3.60519 11.4587 3.6626 11.4589 3.70826C11.3621 3.78493 11.2683 3.86074 11.1788 3.94316C11.1643 3.91145 11.1369 3.90747 11.108 3.92414C11.0985 3.92961 11.0889 3.93728 11.0796 3.94718L10.9202 4.11489C10.8834 4.15361 10.8654 4.21382 10.8807 4.24827C10.8 4.35557 10.72 4.46329 10.6465 4.57474C10.6269 4.56279 10.6081 4.56533 10.5893 4.57617C10.5705 4.58701 10.5518 4.60615 10.5374 4.63112L10.4157 4.8419C10.3876 4.89139 10.3877 4.94453 10.416 4.96144C10.3621 5.08411 10.3081 5.20664 10.2629 5.33008C10.2469 5.3314 10.2372 5.33485 10.2276 5.34039C10.199 5.35686 10.1722 5.39164 10.1604 5.43082L10.0952 5.65228C10.0794 5.7046 10.0976 5.74316 10.1352 5.73971C10.1153 5.85851 10.0968 5.97727 10.087 6.09435C10.0394 6.1219 10.0062 6.17841 10.0064 6.22493L10.0069 6.42336C10.0071 6.46984 10.0404 6.48799 10.0809 6.46463C10.0985 6.56585 10.1176 6.66297 10.1446 6.7513C10.1006 6.79832 10.0827 6.8577 10.0987 6.89088L10.165 7.03642C10.177 7.062 10.2042 7.06615 10.2329 7.04956C10.2423 7.04414 10.2519 7.0365 10.2612 7.02656C10.3135 7.09038 10.3679 7.15041 10.4274 7.2017Z" fill="#FEBB61"/>
<path d="M10.8036 6.9796C10.995 6.55039 11.1773 6.11691 11.4185 5.71509C11.6642 5.18794 11.9652 4.6908 12.3198 4.22952C12.4091 4.11335 12.5099 4.02448 12.6163 3.96009C12.6234 3.94901 12.6302 3.93767 12.6373 3.92662C12.4041 3.7066 12.0356 3.68886 11.62 3.92843C10.9173 4.33465 10.3492 5.31799 10.3515 6.12487C10.3528 6.57146 10.5284 6.86983 10.8036 6.9796Z" fill="#EFA143"/>
<path d="M10.8035 6.97959C10.8227 6.93647 10.8419 6.89332 10.861 6.85016C10.6703 6.81763 10.5144 6.70824 10.4119 6.53174C10.4855 6.75472 10.6232 6.90756 10.8035 6.97959Z" fill="#FFDD94"/>
<path d="M11.2398 5.99532C11.2133 6.0106 11.1868 6.02592 11.1603 6.04123C11.1516 6.10727 11.1429 6.16923 11.1343 6.23724L11.141 6.23338C11.1832 6.1457 11.2267 6.05881 11.2721 5.9729C11.2633 5.98054 11.2527 5.98785 11.2398 5.99532Z" fill="#FFDD94"/>
<path d="M11.1331 5.23087C11.1614 5.21457 11.1897 5.19822 11.218 5.18188C11.2834 5.14624 11.3064 5.16139 11.3066 5.23444C11.3072 5.44778 11.3079 5.66094 11.3085 5.87625C11.3085 5.88955 11.3074 5.90068 11.3057 5.91119C11.3425 5.84336 11.3809 5.77634 11.4207 5.71014C11.4924 5.55672 11.5687 5.40585 11.6498 5.25769C11.634 5.26775 11.6182 5.2774 11.6022 5.28664C11.5824 5.29805 11.5624 5.30906 11.5423 5.32011L11.5415 5.00937C11.5687 4.99228 11.5956 4.97536 11.6221 4.96005C11.6729 4.93073 11.7225 4.9072 11.7713 4.89907C11.8046 4.89418 11.8281 4.9042 11.8425 4.92469C11.9007 4.82954 11.9608 4.73559 12.023 4.64298C12.0158 4.63982 12.009 4.63588 12.0007 4.6344C11.967 4.62738 11.8803 4.63473 11.7813 4.69189L11.7806 4.43799L11.6427 4.51761L11.6434 4.76331L11.5392 4.82351L11.5385 4.57781L11.4006 4.6574L11.4013 4.91126L11.1327 5.06637L11.1331 5.23087Z" fill="#FFDD94"/>
<path d="M13.7322 2.23828L8.92173 8.72714L7.94915 11.6471L5.33736 17.2815H7.37542L10.7471 15.3243L9.70784 13.006L9.94229 11.2401L9.8904 9.17687L13.7322 2.23828Z" fill="#373F51"/>
<path d="M13.7322 2.23828L11.4381 7.49457L12.2981 11.5898L9.55425 15.6032L7.37545 17.2815L8.73415 18.7373L10.7828 16.9137L13.4857 12.3679L12.2981 7.82219L13.7322 2.23828Z" fill="#4C5671"/>
<path d="M22.6044 13.8546L20.089 10.9246L21.5806 13.8104L21.4892 17.5525L22.8894 16.7059L22.6044 13.8546Z" fill="#373F51"/>
<path d="M16.3861 6.78158L19.1151 9.01925L20.0889 10.9245L19.4069 8.593L17.1103 6.26847L16.2613 4.31939L13.7322 2.23828L15.7478 4.70959L16.3861 6.78158Z" fill="#373F51"/>
<path d="M6.17834 6.04224L5.97895 6.68084L7.67813 7.26155L6.17834 6.04224Z" fill="#373F51"/>
<path d="M6.17832 6.04216L6.74535 5.77759L7.67812 7.2615L6.17832 6.04216Z" fill="#272E3A"/>
<path d="M6.17834 6.04216L5.97894 6.68083L6.58668 6.38575L6.74538 5.77759L6.17834 6.04216Z" fill="#4C5671"/>
<path d="M5.30884 8.51343L5.58445 8.93837L6.33335 8.63042L5.30884 8.51343Z" fill="#373F51"/>
<path d="M5.30873 8.51338L5.3229 8.15845L6.33325 8.63037L5.30873 8.51338Z" fill="#272E3A"/>
<path d="M5.30873 8.51338L5.58437 8.93836L5.59364 8.55162L5.3229 8.15845L5.30873 8.51338Z" fill="#4C5671"/>
<path d="M10.7506 0.000244141L10.1772 0.344692L11.0606 1.90792L10.7506 0.000244141Z" fill="#373F51"/>
<path d="M10.7506 0L11.3501 0.179302L11.0606 1.9077L10.7506 0Z" fill="#272E3A"/>
<path d="M10.7506 0L10.1771 0.344495L10.8273 0.528067L11.3501 0.179302L10.7506 0Z" fill="#4C5671"/>
<path d="M9.65074 2.79346L9.13371 3.09532L10.1759 3.6478L9.65074 2.79346Z" fill="#373F51"/>
<path d="M9.65073 2.79345L10.2545 2.73999L10.1759 3.6478L9.65073 2.79345Z" fill="#272E3A"/>
<path d="M9.65076 2.79345L9.13369 3.09535L9.78725 3.03208L10.2546 2.73999L9.65076 2.79345Z" fill="#4C5671"/>
</svg>
